<svg xmlns="http://www.w3.org/2000/svg" viewBox="0 0 460 82" width="460" height="82">
  <!-- Circuit hub icon -->
  <!-- Central node -->
  <circle cx="34" cy="41" r="7" fill="#2a9d8f" />
  <circle cx="34" cy="41" r="4" fill="white" />
  <!-- Top-left node -->
  <circle cx="10" cy="17" r="5" fill="#1a2a4a" />
  <circle cx="10" cy="17" r="2.5" fill="white" />
  <!-- Top-right node -->
  <circle cx="58" cy="17" r="5" fill="#1a2a4a" />
  <circle cx="58" cy="17" r="2.5" fill="white" />
  <!-- Right node -->
  <circle cx="66" cy="41" r="5" fill="#2a9d8f" />
  <circle cx="66" cy="41" r="2.5" fill="white" />
  <!-- Bottom-left node -->
  <circle cx="10" cy="65" r="5" fill="#1a2a4a" />
  <circle cx="10" cy="65" r="2.5" fill="white" />
  <!-- Bottom-right node -->
  <circle cx="58" cy="65" r="5" fill="#1a2a4a" />
  <circle cx="58" cy="65" r="2.5" fill="white" />
  <!-- Lines from center to nodes -->
  <line x1="28" y1="36" x2="14" y2="20" stroke="#2a9d8f" stroke-width="2.5" stroke-linecap="round"/>
  <line x1="40" y1="36" x2="54" y2="20" stroke="#2a9d8f" stroke-width="2.5" stroke-linecap="round"/>
  <line x1="41" y1="41" x2="61" y2="41" stroke="#2a9d8f" stroke-width="2.5" stroke-linecap="round"/>
  <line x1="28" y1="46" x2="14" y2="62" stroke="#2a9d8f" stroke-width="2.5" stroke-linecap="round"/>
  <line x1="40" y1="46" x2="54" y2="62" stroke="#2a9d8f" stroke-width="2.5" stroke-linecap="round"/>

  <!-- Brand text -->
  <text x="80" y="55" font-family="'Space Grotesk', 'Inter', system-ui, sans-serif" font-size="54" font-weight="700" fill="#1a2a4a" letter-spacing="-1">NanoCircuit<tspan fill="#2a9d8f">.lk</tspan></text>
  <text x="82" y="75" font-family="'Space Grotesk', 'Inter', system-ui, sans-serif" font-size="13" font-weight="600" fill="#2a9d8f" letter-spacing="4">ELECTRONICS STORE</text>
</svg>
